<?xml version="1.0" encoding="UTF-8"?><svg xmlns="http://www.w3.org/2000/svg" xmlns:xlink="http://www.w3.org/1999/xlink" contentScriptType="text/ecmascript" width="48" zoomAndPan="magnify" contentStyleType="text/css" viewBox="0 0 48 48" height="48" preserveAspectRatio="xMidYMid meet" version="1.0"><defs><clipPath id="clip-0"><path d="M 1.941406 6.183594 L 46 6.183594 L 46 40.714844 L 1.941406 40.714844 Z M 1.941406 6.183594 " clip-rule="nonzero"/></clipPath></defs><path fill="rgb(100%, 100%, 100%)" d="M 5.945312 27.125 C 5.945312 30.945312 7.382812 34.417969 9.738281 37 L 30.164062 37 C 32.515625 34.417969 33.957031 30.945312 33.957031 27.125 C 33.957031 26.648438 33.933594 26.179688 33.890625 25.714844 L 6.007812 25.714844 C 5.964844 26.179688 5.945312 26.648438 5.945312 27.125 " fill-opacity="1" fill-rule="nonzero"/><path fill="rgb(100%, 100%, 100%)" d="M 19.253906 17.695312 L 10.023438 17.695312 C 9.789062 18.019531 9.570312 18.347656 9.359375 18.6875 L 19.253906 18.6875 L 19.253906 17.695312 " fill-opacity="1" fill-rule="nonzero"/><path fill="rgb(100%, 100%, 100%)" d="M 19.253906 20.171875 L 8.125 20.171875 C 7.980469 20.496094 7.839844 20.828125 7.714844 21.164062 L 19.253906 21.164062 L 19.253906 20.171875 " fill-opacity="1" fill-rule="nonzero"/><path fill="rgb(100%, 100%, 100%)" d="M 19.253906 22.746094 L 7.011719 22.746094 C 6.929688 23.070312 6.863281 23.402344 6.804688 23.734375 L 19.253906 23.734375 L 19.253906 22.746094 " fill-opacity="1" fill-rule="nonzero"/><path fill="rgb(100%, 100%, 100%)" d="M 17.136719 16.433594 L 17.113281 16.433594 L 17.113281 16.484375 L 17.136719 16.484375 L 17.136719 16.433594 " fill-opacity="1" fill-rule="nonzero"/><g clip-path="url(#clip-0)"><path fill="rgb(100%, 100%, 100%)" d="M 36.332031 26.921875 C 36.332031 31.335938 34.855469 35.542969 32.160156 38.824219 L 7.835938 38.824219 C 5.140625 35.542969 3.660156 31.335938 3.660156 26.921875 C 3.660156 25.84375 3.746094 24.777344 3.921875 23.734375 C 3.976562 23.402344 4.039062 23.074219 4.113281 22.746094 C 4.296875 21.898438 4.539062 21.074219 4.832031 20.269531 C 4.957031 19.9375 5.089844 19.605469 5.230469 19.28125 C 5.589844 18.453125 6.003906 17.664062 6.476562 16.902344 C 6.6875 16.566406 6.90625 16.238281 7.140625 15.914062 C 7.390625 15.570312 7.648438 15.234375 7.921875 14.910156 L 32.074219 14.910156 C 34.824219 18.199219 36.332031 22.445312 36.332031 26.921875 Z M 9.449219 8.691406 L 32.308594 8.691406 L 32.308594 11.726562 L 9.449219 11.726562 Z M 45.320312 26.4375 L 37.652344 13.128906 L 35.921875 10.121094 L 35.921875 6.1875 L 4.558594 6.1875 L 7.03125 10.242188 L 7.03125 13.1875 L 6.917969 13.3125 C 6.207031 14.128906 5.566406 14.996094 5.003906 15.914062 C 4.800781 16.242188 4.609375 16.570312 4.429688 16.902344 C 4.011719 17.671875 3.648438 18.460938 3.335938 19.28125 C 3.210938 19.609375 3.089844 19.9375 2.984375 20.269531 C 2.71875 21.082031 2.503906 21.902344 2.335938 22.746094 C 2.269531 23.074219 2.214844 23.402344 2.167969 23.734375 C 2.007812 24.78125 1.933594 25.84375 1.933594 26.921875 C 1.933594 31.949219 3.667969 36.738281 6.824219 40.414062 L 7.082031 40.710938 L 32.914062 40.710938 L 33.171875 40.414062 C 36.324219 36.738281 38.0625 31.949219 38.0625 26.921875 C 38.0625 23.53125 37.273438 20.257812 35.804688 17.367188 L 42.132812 28.347656 C 42.625 29.210938 43.453125 29.730469 44.203125 29.730469 C 44.453125 29.730469 44.695312 29.675781 44.914062 29.550781 C 45.835938 29.039062 46.019531 27.644531 45.320312 26.4375 " fill-opacity="1" fill-rule="nonzero"/></g></svg>