<?xml version="1.0" encoding="UTF-8"?><svg xmlns="http://www.w3.org/2000/svg" xmlns:xlink="http://www.w3.org/1999/xlink" contentScriptType="text/ecmascript" width="48" zoomAndPan="magnify" contentStyleType="text/css" viewBox="0 0 48 48" height="48" preserveAspectRatio="xMidYMid meet" version="1.0"><defs><clipPath id="clip-0"><path d="M 2.535156 5.945312 L 45.144531 5.945312 L 45.144531 41.199219 L 2.535156 41.199219 Z M 2.535156 5.945312 " clip-rule="nonzero"/></clipPath></defs><path fill="rgb(100%, 100%, 100%)" d="M 10.984375 16.695312 C 11.085938 16.695312 11.1875 16.675781 11.285156 16.628906 C 11.640625 16.460938 11.792969 16.035156 11.628906 15.675781 C 11.457031 15.304688 11.371094 14.921875 11.371094 14.542969 C 11.371094 13.351562 12.214844 12.417969 12.921875 11.847656 C 13.230469 11.601562 13.28125 11.148438 13.035156 10.839844 C 12.789062 10.527344 12.34375 10.476562 12.035156 10.726562 C 10.671875 11.828125 9.949219 13.148438 9.949219 14.542969 C 9.949219 15.136719 10.082031 15.71875 10.34375 16.28125 C 10.460938 16.542969 10.71875 16.695312 10.984375 16.695312 " fill-opacity="1" fill-rule="nonzero"/><path fill="rgb(100%, 100%, 100%)" d="M 19.753906 18.847656 L 20.289062 18.847656 L 20.289062 19.566406 C 20.289062 19.960938 20.609375 20.28125 21 20.28125 C 21.390625 20.28125 21.710938 19.960938 21.710938 19.566406 L 21.710938 18.847656 L 22.246094 18.847656 C 24.378906 18.847656 26.382812 18.007812 27.890625 16.484375 C 28.167969 16.207031 28.167969 15.75 27.890625 15.472656 C 27.613281 15.191406 27.164062 15.191406 26.886719 15.472656 C 25.648438 16.722656 24 17.414062 22.246094 17.414062 L 21.710938 17.414062 L 21.710938 15.945312 C 23.460938 15.78125 25.089844 15.011719 26.351562 13.738281 L 26.472656 13.617188 C 26.75 13.335938 26.75 12.882812 26.472656 12.601562 C 26.195312 12.320312 25.746094 12.320312 25.46875 12.601562 L 25.347656 12.722656 C 24.355469 13.726562 23.082031 14.34375 21.710938 14.5 L 21.710938 13.058594 C 22.523438 12.953125 23.304688 12.65625 23.996094 12.191406 L 24.945312 11.550781 C 25.269531 11.332031 25.359375 10.886719 25.140625 10.558594 C 24.921875 10.226562 24.480469 10.140625 24.15625 10.359375 L 23.207031 10.996094 C 22.75 11.304688 22.242188 11.511719 21.710938 11.609375 L 21.710938 10.535156 L 22.210938 10.027344 C 22.488281 9.746094 22.488281 9.292969 22.210938 9.011719 C 21.933594 8.734375 21.484375 8.734375 21.207031 9.011719 L 21 9.222656 L 20.792969 9.011719 C 20.515625 8.734375 20.066406 8.734375 19.789062 9.011719 C 19.511719 9.292969 19.511719 9.746094 19.789062 10.027344 L 20.289062 10.535156 L 20.289062 11.609375 C 19.757812 11.511719 19.25 11.304688 18.792969 10.996094 L 17.84375 10.359375 C 17.515625 10.136719 17.078125 10.226562 16.859375 10.558594 C 16.640625 10.886719 16.730469 11.332031 17.054688 11.550781 L 18.003906 12.191406 C 18.695312 12.65625 19.476562 12.953125 20.289062 13.058594 L 20.289062 14.5 C 18.917969 14.34375 17.644531 13.726562 16.652344 12.722656 L 16.53125 12.601562 C 16.253906 12.320312 15.804688 12.320312 15.527344 12.601562 C 15.25 12.882812 15.25 13.335938 15.527344 13.617188 L 15.648438 13.738281 C 16.910156 15.011719 18.535156 15.78125 20.289062 15.945312 L 20.289062 17.414062 L 19.753906 17.414062 C 18 17.414062 16.351562 16.722656 15.113281 15.472656 C 14.835938 15.191406 14.386719 15.191406 14.109375 15.472656 C 13.832031 15.75 13.832031 16.207031 14.109375 16.484375 C 15.617188 18.007812 17.621094 18.847656 19.753906 18.847656 " fill-opacity="1" fill-rule="nonzero"/><g clip-path="url(#clip-0)"><path fill="rgb(100%, 100%, 100%)" d="M 38.75 25.414062 L 33.855469 25.414062 C 34.300781 24.496094 34.652344 23.535156 34.90625 22.546875 L 38.75 22.546875 C 39.925781 22.546875 40.878906 21.578125 40.878906 20.390625 C 40.878906 19.207031 39.925781 18.238281 38.75 18.238281 L 35.527344 18.238281 L 35.808594 15.574219 C 35.820312 15.507812 35.832031 15.4375 35.84375 15.371094 L 38.75 15.371094 C 40.078125 15.371094 41.328125 15.890625 42.265625 16.839844 C 43.203125 17.789062 43.71875 19.050781 43.71875 20.390625 C 43.71875 23.160156 41.492188 25.414062 38.75 25.414062 Z M 38.039062 31.40625 C 38.039062 31.550781 38.015625 31.703125 37.96875 31.851562 C 37.96875 31.855469 37.96875 31.855469 37.96875 31.859375 C 37.964844 31.863281 37.964844 31.863281 37.964844 31.867188 C 37.769531 32.460938 36.863281 33.949219 32.679688 35.246094 C 29.480469 36.238281 25.332031 36.785156 21 36.785156 C 16.667969 36.785156 12.519531 36.238281 9.320312 35.246094 C 5.136719 33.949219 4.230469 32.464844 4.035156 31.867188 C 4.035156 31.867188 4.035156 31.863281 4.035156 31.863281 C 4.03125 31.859375 4.03125 31.855469 4.03125 31.851562 C 3.984375 31.703125 3.960938 31.550781 3.960938 31.40625 C 3.960938 30.035156 6.027344 28.574219 9.394531 27.539062 C 9.652344 27.910156 9.929688 28.269531 10.21875 28.613281 C 8.890625 29.296875 8.21875 30.109375 8.21875 31.046875 C 8.21875 33.871094 14.648438 35.351562 21 35.351562 C 27.351562 35.351562 33.78125 33.871094 33.78125 31.046875 C 33.78125 30.109375 33.109375 29.296875 31.78125 28.613281 C 32.070312 28.269531 32.347656 27.910156 32.605469 27.539062 C 35.972656 28.574219 38.039062 30.035156 38.039062 31.40625 Z M 34.722656 36.894531 C 31.566406 38.644531 26.769531 39.691406 21.566406 39.761719 C 21.191406 39.761719 20.808594 39.761719 20.4375 39.761719 C 15.230469 39.691406 10.433594 38.644531 7.277344 36.894531 C 6.4375 36.429688 5.726562 35.785156 5.179688 35.023438 C 6.332031 35.71875 7.691406 36.242188 8.902344 36.617188 C 12.230469 37.652344 16.527344 38.222656 21 38.222656 C 25.472656 38.222656 29.765625 37.652344 33.097656 36.617188 C 34.308594 36.242188 35.667969 35.71875 36.820312 35.023438 C 36.273438 35.785156 35.5625 36.429688 34.722656 36.894531 Z M 32.359375 31.046875 C 32.359375 31.398438 31.722656 32.183594 29.335938 32.894531 C 27.117188 33.554688 24.15625 33.914062 21 33.914062 C 17.84375 33.914062 14.882812 33.554688 12.664062 32.894531 C 10.277344 32.183594 9.640625 31.398438 9.640625 31.046875 C 9.640625 30.746094 10.070312 30.234375 11.242188 29.714844 C 12.351562 30.800781 13.617188 31.703125 15.003906 32.40625 C 15.101562 32.453125 15.210938 32.480469 15.320312 32.480469 L 26.679688 32.480469 C 26.789062 32.480469 26.898438 32.453125 26.996094 32.40625 C 28.382812 31.703125 29.648438 30.800781 30.757812 29.714844 C 31.929688 30.234375 32.359375 30.746094 32.359375 31.046875 Z M 8.09375 20.121094 L 7.953125 18.753906 C 8.65625 19.484375 9.546875 20.160156 10.617188 20.753906 C 11.605469 21.304688 12.710938 21.765625 13.898438 22.132812 L 13.898438 27.457031 C 13.898438 28.644531 14.855469 29.609375 16.03125 29.609375 C 17.203125 29.609375 18.160156 28.644531 18.160156 27.457031 L 18.160156 25.898438 C 18.382812 25.980469 18.621094 26.023438 18.871094 26.023438 C 20.042969 26.023438 21 25.058594 21 23.871094 L 21 23.152344 C 24.910156 23.152344 28.597656 22.300781 31.382812 20.753906 C 32.453125 20.160156 33.34375 19.484375 34.046875 18.753906 L 33.90625 20.121094 C 33.851562 20.644531 33.765625 21.164062 33.65625 21.671875 C 33.339844 23.117188 32.800781 24.492188 32.054688 25.765625 C 31.941406 25.957031 31.832031 26.132812 31.71875 26.308594 C 31.71875 26.3125 31.714844 26.3125 31.714844 26.316406 C 31.652344 26.410156 31.589844 26.503906 31.527344 26.597656 C 31.09375 27.226562 30.609375 27.824219 30.085938 28.367188 C 30.082031 28.371094 30.082031 28.371094 30.082031 28.371094 C 29.039062 29.457031 27.839844 30.355469 26.511719 31.046875 L 15.488281 31.046875 C 14.160156 30.355469 12.960938 29.457031 11.917969 28.371094 C 11.917969 28.371094 11.917969 28.371094 11.914062 28.367188 C 11.308594 27.738281 10.761719 27.046875 10.285156 26.316406 C 10.285156 26.3125 10.28125 26.3125 10.28125 26.308594 C 9.082031 24.460938 8.324219 22.320312 8.09375 20.121094 Z M 16.738281 22.804688 L 16.738281 27.457031 C 16.738281 27.855469 16.421875 28.175781 16.03125 28.175781 C 15.636719 28.175781 15.320312 27.855469 15.320312 27.457031 L 15.320312 22.519531 C 15.785156 22.625 16.257812 22.722656 16.738281 22.804688 Z M 19.578125 23.117188 L 19.578125 23.871094 C 19.578125 24.265625 19.261719 24.589844 18.871094 24.589844 C 18.476562 24.589844 18.160156 24.265625 18.160156 23.871094 L 18.160156 23 C 18.628906 23.050781 19.101562 23.089844 19.578125 23.117188 Z M 7.511719 14.511719 C 7.527344 12.6875 8.871094 10.941406 11.300781 9.589844 C 13.878906 8.15625 17.324219 7.367188 21 7.367188 C 24.675781 7.367188 28.121094 8.15625 30.699219 9.589844 C 33.128906 10.941406 34.472656 12.6875 34.488281 14.511719 L 34.484375 14.574219 C 34.480469 14.578125 34.480469 14.578125 34.480469 14.582031 L 34.402344 15.347656 C 34.066406 16.886719 32.78125 18.335938 30.699219 19.496094 C 28.121094 20.929688 24.675781 21.71875 21 21.71875 C 20.761719 21.71875 20.527344 21.714844 20.289062 21.707031 C 19.371094 21.683594 18.46875 21.605469 17.59375 21.484375 C 17.566406 21.480469 17.542969 21.476562 17.515625 21.472656 C 15.179688 21.136719 13.042969 20.464844 11.300781 19.496094 C 9.21875 18.335938 7.933594 16.886719 7.597656 15.347656 Z M 35.316406 20.273438 L 35.378906 19.675781 L 38.75 19.675781 C 39.140625 19.675781 39.460938 19.996094 39.460938 20.390625 C 39.460938 20.789062 39.140625 21.109375 38.75 21.109375 L 35.207031 21.109375 C 35.25 20.832031 35.289062 20.550781 35.316406 20.273438 Z M 38.75 13.933594 L 35.875 13.933594 C 35.625 11.789062 34.050781 9.816406 31.382812 8.332031 C 28.597656 6.785156 24.910156 5.933594 21 5.933594 C 17.089844 5.933594 13.402344 6.785156 10.617188 8.332031 C 7.699219 9.957031 6.089844 12.160156 6.089844 14.542969 C 6.089844 14.542969 6.089844 14.546875 6.089844 14.546875 C 6.089844 14.894531 6.125 15.238281 6.191406 15.574219 L 6.683594 20.273438 C 6.902344 22.382812 7.5625 24.441406 8.601562 26.285156 C 4.683594 27.554688 2.539062 29.355469 2.539062 31.40625 C 2.539062 31.632812 2.570312 31.863281 2.625 32.089844 C 2.613281 32.160156 2.613281 32.230469 2.621094 32.300781 L 2.625 32.332031 C 2.953125 34.78125 4.433594 36.957031 6.59375 38.152344 C 9.949219 40.011719 14.988281 41.121094 20.425781 41.195312 C 20.613281 41.195312 20.804688 41.199219 20.996094 41.199219 C 21.191406 41.199219 21.386719 41.195312 21.582031 41.195312 C 27.011719 41.121094 32.050781 40.011719 35.40625 38.152344 C 37.566406 36.957031 39.046875 34.78125 39.375 32.332031 C 39.375 32.320312 39.375 32.308594 39.378906 32.296875 C 39.386719 32.230469 39.386719 32.160156 39.375 32.089844 C 39.429688 31.863281 39.460938 31.632812 39.460938 31.40625 C 39.460938 29.644531 37.875 28.066406 34.941406 26.851562 L 38.75 26.851562 C 42.273438 26.851562 45.140625 23.953125 45.140625 20.390625 C 45.140625 18.667969 44.476562 17.046875 43.269531 15.824219 C 42.0625 14.605469 40.457031 13.933594 38.75 13.933594 " fill-opacity="1" fill-rule="nonzero"/></g><path fill="rgb(100%, 100%, 100%)" d="M 27.722656 28.136719 C 27.851562 28.238281 28.003906 28.285156 28.15625 28.285156 C 28.367188 28.285156 28.578125 28.1875 28.71875 28.003906 C 29.589844 26.855469 30.292969 25.589844 30.8125 24.242188 C 30.957031 23.871094 30.777344 23.457031 30.410156 23.3125 C 30.046875 23.167969 29.632812 23.351562 29.492188 23.71875 C 29.019531 24.941406 28.378906 26.089844 27.589844 27.132812 C 27.351562 27.445312 27.414062 27.894531 27.722656 28.136719 " fill-opacity="1" fill-rule="nonzero"/></svg>